# xmcd
#
# Track frame offsets: 
#        150
#        12066
#        25357
#        38881
#        57703
#        69607
#        82335
#        95044
#        108586
#        123925
#        135817
#        149422
#        161182
#        172693
#        184468
#
# Disc length: 2704 seconds
#
# Revision: 0
# Processed by: cddbd v1.5.2PL0 Copyright (c) Steve Scherf et al.
# Submitted via: ExactAudioCopy v1.3
#
DISCID=d70a8e0f
DTITLE=Craig Duncan - Colonial Christmas
DYEAR=2018
DGENRE=Christmas
TTITLE0=We Wish You A Merry Christmas
TTITLE1=Good Christian Men Rejoice
TTITLE2=The Holly And The Ivy
TTITLE3=Drive The Cold Winter Away
TTITLE4=Deck The Halls
TTITLE5=All You That Are Good Fellows
TTITLE6=God Rest Ye Merry Gentlemen
TTITLE7=The Sussex Carol
TTITLE8=Cold And Raw The North Wind Doth Blow
TTITLE9=Joseph Dearest, Joseph Mine
TTITLE10=While Shepherds Watched Their Flocks
TTITLE11=Blessed Be That Maid Marie
TTITLE12=The Merry Wassail
TTITLE13=If Angels Sung A Shepherd's Birth (Milford)
TTITLE14=A Virgin Unspotted (Judea)
EXTD=
EXTT0=
EXTT1=
EXTT2=
EXTT3=
EXTT4=
EXTT5=
EXTT6=
EXTT7=
EXTT8=
EXTT9=
EXTT10=
EXTT11=
EXTT12=
EXTT13=
EXTT14=
PLAYORDER=
